<mxfile host="65bd71144e" pages="2">
    <diagram name="macro" id="9zHcCeUQqaZ8692WswbY">
        <mxGraphModel dx="897" dy="784" grid="1" gridSize="10" guides="1" tooltips="1" connect="1" arrows="1" fold="1" page="1" pageScale="1" pageWidth="827" pageHeight="1169" math="0" shadow="0">
            <root>
                <mxCell id="0"/>
                <mxCell id="1" parent="0"/>
                <mxCell id="A0lSjFTI5e9bqqVm3xAy-134" value="manage" style="edgeStyle=none;rounded=1;orthogonalLoop=1;jettySize=auto;html=1;entryX=0.25;entryY=0;entryDx=0;entryDy=0;strokeWidth=2;" parent="1" edge="1">
                    <mxGeometry relative="1" as="geometry">
                        <mxPoint x="253" y="390" as="sourcePoint"/>
                        <mxPoint x="253" y="450" as="targetPoint"/>
                    </mxGeometry>
                </mxCell>
                <mxCell id="A0lSjFTI5e9bqqVm3xAy-139" value="use" style="edgeStyle=none;rounded=1;orthogonalLoop=1;jettySize=auto;html=1;strokeWidth=2;" parent="1" source="A0lSjFTI5e9bqqVm3xAy-11" target="A0lSjFTI5e9bqqVm3xAy-66" edge="1">
                    <mxGeometry x="0.0047" relative="1" as="geometry">
                        <mxPoint as="offset"/>
                    </mxGeometry>
                </mxCell>
                <mxCell id="A0lSjFTI5e9bqqVm3xAy-11" value="dARK Governance Layer" style="whiteSpace=wrap;strokeWidth=2;verticalAlign=top;fontSize=16;fontStyle=1;rounded=1;" parent="1" vertex="1">
                    <mxGeometry x="70" y="80" width="400" height="312.5" as="geometry"/>
                </mxCell>
                <mxCell id="A0lSjFTI5e9bqqVm3xAy-121" value="" style="group;rounded=1;" parent="A0lSjFTI5e9bqqVm3xAy-11" vertex="1" connectable="0">
                    <mxGeometry x="20" y="184.18293577981652" width="116.99999999999999" height="134.1743119266055" as="geometry"/>
                </mxCell>
                <mxCell id="A0lSjFTI5e9bqqVm3xAy-120" value="" style="ellipse;whiteSpace=wrap;html=1;aspect=fixed;fillColor=#d5e8d4;strokeColor=none;rounded=1;opacity=50;" parent="A0lSjFTI5e9bqqVm3xAy-121" vertex="1">
                    <mxGeometry width="117" height="117" as="geometry"/>
                </mxCell>
                <mxCell id="A0lSjFTI5e9bqqVm3xAy-92" value="Brazilian Authority" style="editableCssRules=path;shape=image;aspect=fixed;image=data:image/svg+xml,PHN2ZyB4bWxucz0iaHR0cDovL3d3dy53My5vcmcvMjAwMC9zdmciIHZpZXdCb3g9IjAgMCA2NDAgNTEyIj48IS0tISBGb250IEF3ZXNvbWUgRnJlZSA2LjQuMCBieSBAZm9udGF3ZXNvbWUgLSBodHRwczovL2ZvbnRhd2Vzb21lLmNvbSBMaWNlbnNlIC0gaHR0cHM6Ly9mb250YXdlc29tZS5jb20vbGljZW5zZS9mcmVlIChJY29uczogQ0MgQlkgNC4wLCBGb250czogU0lMIE9GTCAxLjEsIENvZGU6IE1JVCBMaWNlbnNlKSBDb3B5cmlnaHQgMjAyMyBGb250aWNvbnMsIEluYy4gLS0+PHN0eWxlIHR5cGU9InRleHQvY3NzIj5wYXRoIHtmaWxsOiMwMDAwMDA7fTwvc3R5bGU+PHBhdGggZD0iTTE0NCAwYTgwIDgwIDAgMSAxIDAgMTYwQTgwIDgwIDAgMSAxIDE0NCAwek01MTIgMGE4MCA4MCAwIDEgMSAwIDE2MEE4MCA4MCAwIDEgMSA1MTIgMHpNMCAyOTguN0MwIDIzOS44IDQ3LjggMTkyIDEwNi43IDE5Mmg0Mi43YzE1LjkgMCAzMSAzLjUgNDQuNiA5LjdjLTEuMyA3LjItMS45IDE0LjctMS45IDIyLjNjMCAzOC4yIDE2LjggNzIuNSA0My4zIDk2Yy0uMiAwLS40IDAtLjcgMEgyMS4zQzkuNiAzMjAgMCAzMTAuNCAwIDI5OC43ek00MDUuMyAzMjBjLS4yIDAtLjQgMC0uNyAwYzI2LjYtMjMuNSA0My4zLTU3LjggNDMuMy05NmMwLTcuNi0uNy0xNS0xLjktMjIuM2MxMy42LTYuMyAyOC43LTkuNyA0NC42LTkuN2g0Mi43QzU5Mi4yIDE5MiA2NDAgMjM5LjggNjQwIDI5OC43YzAgMTEuOC05LjYgMjEuMy0yMS4zIDIxLjNINDA1LjN6TTIyNCAyMjRhOTYgOTYgMCAxIDEgMTkyIDAgOTYgOTYgMCAxIDEgLTE5MiAwek0xMjggNDg1LjNDMTI4IDQxMS43IDE4Ny43IDM1MiAyNjEuMyAzNTJIMzc4LjdDNDUyLjMgMzUyIDUxMiA0MTEuNyA1MTIgNDg1LjNjMCAxNC43LTExLjkgMjYuNy0yNi43IDI2LjdIMTU0LjdjLTE0LjcgMC0yNi43LTExLjktMjYuNy0yNi43eiIvPjwvc3ZnPg==;connectable=0;movable=1;verticalLabelPosition=bottom;resizable=1;rotatable=0;cloneable=0;deletable=1;recursiveResize=0;imageBackground=none;verticalAlign=top;rounded=1;" parent="A0lSjFTI5e9bqqVm3xAy-121" vertex="1">
                    <mxGeometry x="34.02000000000001" y="22.93577981651376" width="46.9547619047619" height="46.9547619047619" as="geometry"/>
                </mxCell>
                <mxCell id="A0lSjFTI5e9bqqVm3xAy-125" value="" style="group;rounded=1;" parent="A0lSjFTI5e9bqqVm3xAy-11" vertex="1" connectable="0">
                    <mxGeometry x="270" y="190.0029357798165" width="116.99999999999999" height="134.1743119266055" as="geometry"/>
                </mxCell>
                <mxCell id="A0lSjFTI5e9bqqVm3xAy-126" value="" style="ellipse;whiteSpace=wrap;html=1;aspect=fixed;fillColor=#e1d5e7;strokeColor=none;rounded=1;opacity=50;" parent="A0lSjFTI5e9bqqVm3xAy-125" vertex="1">
                    <mxGeometry width="117" height="117" as="geometry"/>
                </mxCell>
                <mxCell id="A0lSjFTI5e9bqqVm3xAy-127" value="UE Authority" style="editableCssRules=path;shape=image;aspect=fixed;image=data:image/svg+xml,PHN2ZyB4bWxucz0iaHR0cDovL3d3dy53My5vcmcvMjAwMC9zdmciIHZpZXdCb3g9IjAgMCA2NDAgNTEyIj48IS0tISBGb250IEF3ZXNvbWUgRnJlZSA2LjQuMCBieSBAZm9udGF3ZXNvbWUgLSBodHRwczovL2ZvbnRhd2Vzb21lLmNvbSBMaWNlbnNlIC0gaHR0cHM6Ly9mb250YXdlc29tZS5jb20vbGljZW5zZS9mcmVlIChJY29uczogQ0MgQlkgNC4wLCBGb250czogU0lMIE9GTCAxLjEsIENvZGU6IE1JVCBMaWNlbnNlKSBDb3B5cmlnaHQgMjAyMyBGb250aWNvbnMsIEluYy4gLS0+PHN0eWxlIHR5cGU9InRleHQvY3NzIj5wYXRoIHtmaWxsOiMwMDAwMDA7fTwvc3R5bGU+PHBhdGggZD0iTTE0NCAwYTgwIDgwIDAgMSAxIDAgMTYwQTgwIDgwIDAgMSAxIDE0NCAwek01MTIgMGE4MCA4MCAwIDEgMSAwIDE2MEE4MCA4MCAwIDEgMSA1MTIgMHpNMCAyOTguN0MwIDIzOS44IDQ3LjggMTkyIDEwNi43IDE5Mmg0Mi43YzE1LjkgMCAzMSAzLjUgNDQuNiA5LjdjLTEuMyA3LjItMS45IDE0LjctMS45IDIyLjNjMCAzOC4yIDE2LjggNzIuNSA0My4zIDk2Yy0uMiAwLS40IDAtLjcgMEgyMS4zQzkuNiAzMjAgMCAzMTAuNCAwIDI5OC43ek00MDUuMyAzMjBjLS4yIDAtLjQgMC0uNyAwYzI2LjYtMjMuNSA0My4zLTU3LjggNDMuMy05NmMwLTcuNi0uNy0xNS0xLjktMjIuM2MxMy42LTYuMyAyOC43LTkuNyA0NC42LTkuN2g0Mi43QzU5Mi4yIDE5MiA2NDAgMjM5LjggNjQwIDI5OC43YzAgMTEuOC05LjYgMjEuMy0yMS4zIDIxLjNINDA1LjN6TTIyNCAyMjRhOTYgOTYgMCAxIDEgMTkyIDAgOTYgOTYgMCAxIDEgLTE5MiAwek0xMjggNDg1LjNDMTI4IDQxMS43IDE4Ny43IDM1MiAyNjEuMyAzNTJIMzc4LjdDNDUyLjMgMzUyIDUxMiA0MTEuNyA1MTIgNDg1LjNjMCAxNC43LTExLjkgMjYuNy0yNi43IDI2LjdIMTU0LjdjLTE0LjcgMC0yNi43LTExLjktMjYuNy0yNi43eiIvPjwvc3ZnPg==;connectable=0;movable=1;verticalLabelPosition=bottom;resizable=1;rotatable=0;cloneable=0;deletable=1;recursiveResize=0;imageBackground=none;verticalAlign=top;rounded=1;" parent="A0lSjFTI5e9bqqVm3xAy-125" vertex="1">
                    <mxGeometry x="34.02000000000001" y="22.93577981651376" width="46.9547619047619" height="46.9547619047619" as="geometry"/>
                </mxCell>
                <mxCell id="A0lSjFTI5e9bqqVm3xAy-135" style="edgeStyle=none;rounded=1;orthogonalLoop=1;jettySize=auto;html=1;entryX=0;entryY=1;entryDx=0;entryDy=0;endArrow=none;endFill=0;dashed=1;strokeWidth=2;" parent="A0lSjFTI5e9bqqVm3xAy-11" source="A0lSjFTI5e9bqqVm3xAy-120" target="A0lSjFTI5e9bqqVm3xAy-123" edge="1">
                    <mxGeometry relative="1" as="geometry"/>
                </mxCell>
                <mxCell id="A0lSjFTI5e9bqqVm3xAy-122" value="" style="group;rounded=1;glass=0;opacity=50;" parent="A0lSjFTI5e9bqqVm3xAy-11" vertex="1" connectable="0">
                    <mxGeometry x="141.5" y="40.00403669724771" width="116.99999999999999" height="134.1743119266055" as="geometry"/>
                </mxCell>
                <mxCell id="A0lSjFTI5e9bqqVm3xAy-123" value="" style="ellipse;whiteSpace=wrap;html=1;aspect=fixed;fillColor=#fff2cc;strokeColor=none;rounded=1;opacity=50;" parent="A0lSjFTI5e9bqqVm3xAy-122" vertex="1">
                    <mxGeometry width="117" height="117" as="geometry"/>
                </mxCell>
                <mxCell id="A0lSjFTI5e9bqqVm3xAy-124" value="Latam Authority" style="editableCssRules=path;shape=image;aspect=fixed;image=data:image/svg+xml,PHN2ZyB4bWxucz0iaHR0cDovL3d3dy53My5vcmcvMjAwMC9zdmciIHZpZXdCb3g9IjAgMCA2NDAgNTEyIj48IS0tISBGb250IEF3ZXNvbWUgRnJlZSA2LjQuMCBieSBAZm9udGF3ZXNvbWUgLSBodHRwczovL2ZvbnRhd2Vzb21lLmNvbSBMaWNlbnNlIC0gaHR0cHM6Ly9mb250YXdlc29tZS5jb20vbGljZW5zZS9mcmVlIChJY29uczogQ0MgQlkgNC4wLCBGb250czogU0lMIE9GTCAxLjEsIENvZGU6IE1JVCBMaWNlbnNlKSBDb3B5cmlnaHQgMjAyMyBGb250aWNvbnMsIEluYy4gLS0+PHN0eWxlIHR5cGU9InRleHQvY3NzIj5wYXRoIHtmaWxsOiMwMDAwMDA7fTwvc3R5bGU+PHBhdGggZD0iTTE0NCAwYTgwIDgwIDAgMSAxIDAgMTYwQTgwIDgwIDAgMSAxIDE0NCAwek01MTIgMGE4MCA4MCAwIDEgMSAwIDE2MEE4MCA4MCAwIDEgMSA1MTIgMHpNMCAyOTguN0MwIDIzOS44IDQ3LjggMTkyIDEwNi43IDE5Mmg0Mi43YzE1LjkgMCAzMSAzLjUgNDQuNiA5LjdjLTEuMyA3LjItMS45IDE0LjctMS45IDIyLjNjMCAzOC4yIDE2LjggNzIuNSA0My4zIDk2Yy0uMiAwLS40IDAtLjcgMEgyMS4zQzkuNiAzMjAgMCAzMTAuNCAwIDI5OC43ek00MDUuMyAzMjBjLS4yIDAtLjQgMC0uNyAwYzI2LjYtMjMuNSA0My4zLTU3LjggNDMuMy05NmMwLTcuNi0uNy0xNS0xLjktMjIuM2MxMy42LTYuMyAyOC43LTkuNyA0NC42LTkuN2g0Mi43QzU5Mi4yIDE5MiA2NDAgMjM5LjggNjQwIDI5OC43YzAgMTEuOC05LjYgMjEuMy0yMS4zIDIxLjNINDA1LjN6TTIyNCAyMjRhOTYgOTYgMCAxIDEgMTkyIDAgOTYgOTYgMCAxIDEgLTE5MiAwek0xMjggNDg1LjNDMTI4IDQxMS43IDE4Ny43IDM1MiAyNjEuMyAzNTJIMzc4LjdDNDUyLjMgMzUyIDUxMiA0MTEuNyA1MTIgNDg1LjNjMCAxNC43LTExLjkgMjYuNy0yNi43IDI2LjdIMTU0LjdjLTE0LjcgMC0yNi43LTExLjktMjYuNy0yNi43eiIvPjwvc3ZnPg==;connectable=0;movable=1;verticalLabelPosition=bottom;resizable=1;rotatable=0;cloneable=0;deletable=1;recursiveResize=0;imageBackground=none;verticalAlign=top;rounded=1;" parent="A0lSjFTI5e9bqqVm3xAy-122" vertex="1">
                    <mxGeometry x="34.02000000000001" y="22.93577981651376" width="46.9547619047619" height="46.9547619047619" as="geometry"/>
                </mxCell>
                <mxCell id="A0lSjFTI5e9bqqVm3xAy-136" style="edgeStyle=none;rounded=1;orthogonalLoop=1;jettySize=auto;html=1;entryX=1;entryY=1;entryDx=0;entryDy=0;endArrow=none;endFill=0;dashed=1;strokeWidth=2;exitX=0;exitY=0;exitDx=0;exitDy=0;" parent="A0lSjFTI5e9bqqVm3xAy-11" source="A0lSjFTI5e9bqqVm3xAy-126" target="A0lSjFTI5e9bqqVm3xAy-123" edge="1">
                    <mxGeometry relative="1" as="geometry">
                        <mxPoint x="124" y="207" as="sourcePoint"/>
                        <mxPoint x="169" y="150" as="targetPoint"/>
                    </mxGeometry>
                </mxCell>
                <mxCell id="A0lSjFTI5e9bqqVm3xAy-137" style="edgeStyle=none;rounded=1;orthogonalLoop=1;jettySize=auto;html=1;entryX=0;entryY=0.5;entryDx=0;entryDy=0;endArrow=none;endFill=0;dashed=1;strokeWidth=2;exitX=1.026;exitY=0.563;exitDx=0;exitDy=0;exitPerimeter=0;" parent="A0lSjFTI5e9bqqVm3xAy-11" source="A0lSjFTI5e9bqqVm3xAy-120" target="A0lSjFTI5e9bqqVm3xAy-126" edge="1">
                    <mxGeometry relative="1" as="geometry">
                        <mxPoint x="134" y="217" as="sourcePoint"/>
                        <mxPoint x="179" y="160" as="targetPoint"/>
                    </mxGeometry>
                </mxCell>
                <mxCell id="A0lSjFTI5e9bqqVm3xAy-138" value="report" style="edgeStyle=none;rounded=1;orthogonalLoop=1;jettySize=auto;html=1;exitX=0.31;exitY=-0.024;exitDx=0;exitDy=0;exitPerimeter=0;strokeWidth=2;" parent="1" edge="1">
                    <mxGeometry relative="1" as="geometry">
                        <mxPoint x="304.4000000000001" y="445.87200000000007" as="sourcePoint"/>
                        <mxPoint x="304" y="390" as="targetPoint"/>
                    </mxGeometry>
                </mxCell>
                <mxCell id="A0lSjFTI5e9bqqVm3xAy-143" value="read" style="rounded=0;orthogonalLoop=1;jettySize=auto;html=1;entryX=0.379;entryY=0.993;entryDx=0;entryDy=0;entryPerimeter=0;exitX=0.84;exitY=0.005;exitDx=0;exitDy=0;exitPerimeter=0;strokeWidth=2;" parent="1" edge="1">
                    <mxGeometry relative="1" as="geometry">
                        <mxPoint x="602.6000000000001" y="450.8600000000001" as="sourcePoint"/>
                        <mxPoint x="602.8499999999999" y="389.08000000000004" as="targetPoint"/>
                    </mxGeometry>
                </mxCell>
                <mxCell id="A0lSjFTI5e9bqqVm3xAy-23" value="dARK Core Layer" style="whiteSpace=wrap;strokeWidth=2;verticalAlign=top;fontSize=16;fontStyle=1;rounded=1;" parent="1" vertex="1">
                    <mxGeometry x="70" y="450" width="640" height="172" as="geometry"/>
                </mxCell>
                <mxCell id="A0lSjFTI5e9bqqVm3xAy-101" value="" style="whiteSpace=wrap;strokeWidth=2;verticalAlign=top;fontStyle=0;fontSize=14;fillColor=#d5e8d4;strokeColor=none;rounded=1;opacity=50;" parent="A0lSjFTI5e9bqqVm3xAy-23" vertex="1">
                    <mxGeometry x="18.86372881355931" y="50" width="184.40677966101694" height="100" as="geometry"/>
                </mxCell>
                <mxCell id="A0lSjFTI5e9bqqVm3xAy-102" value="IPFS" style="editableCssRules=path;shape=image;aspect=fixed;image=data:image/svg+xml,PHN2ZyB4bWxucz0iaHR0cDovL3d3dy53My5vcmcvMjAwMC9zdmciIHZpZXdCb3g9IjAgMCA1MTIgNTEyIj48IS0tISBGb250IEF3ZXNvbWUgRnJlZSA2LjQuMCBieSBAZm9udGF3ZXNvbWUgLSBodHRwczovL2ZvbnRhd2Vzb21lLmNvbSBMaWNlbnNlIC0gaHR0cHM6Ly9mb250YXdlc29tZS5jb20vbGljZW5zZS9mcmVlIChJY29uczogQ0MgQlkgNC4wLCBGb250czogU0lMIE9GTCAxLjEsIENvZGU6IE1JVCBMaWNlbnNlKSBDb3B5cmlnaHQgMjAyMyBGb250aWNvbnMsIEluYy4gLS0+PHN0eWxlIHR5cGU9InRleHQvY3NzIj5wYXRoIHtmaWxsOiMwMDAwMDA7fTwvc3R5bGU+PHBhdGggZD0iTTI4OCAxMDkuM1YzNTJjMCAxNy43LTE0LjMgMzItMzIgMzJzLTMyLTE0LjMtMzItMzJWMTA5LjNsLTczLjQgNzMuNGMtMTIuNSAxMi41LTMyLjggMTIuNS00NS4zIDBzLTEyLjUtMzIuOCAwLTQ1LjNsMTI4LTEyOGMxMi41LTEyLjUgMzIuOC0xMi41IDQ1LjMgMGwxMjggMTI4YzEyLjUgMTIuNSAxMi41IDMyLjggMCA0NS4zcy0zMi44IDEyLjUtNDUuMyAwTDI4OCAxMDkuM3pNNjQgMzUySDE5MmMwIDM1LjMgMjguNyA2NCA2NCA2NHM2NC0yOC43IDY0LTY0SDQ0OGMzNS4zIDAgNjQgMjguNyA2NCA2NHYzMmMwIDM1LjMtMjguNyA2NC02NCA2NEg2NGMtMzUuMyAwLTY0LTI4LjctNjQtNjRWNDE2YzAtMzUuMyAyOC43LTY0IDY0LTY0ek00MzIgNDU2YTI0IDI0IDAgMSAwIDAtNDggMjQgMjQgMCAxIDAgMCA0OHoiLz48L3N2Zz4=;connectable=0;movable=1;verticalLabelPosition=bottom;resizable=1;rotatable=0;cloneable=0;deletable=1;recursiveResize=0;imageBackground=none;verticalAlign=top;rounded=1;" parent="A0lSjFTI5e9bqqVm3xAy-101" vertex="1">
                    <mxGeometry x="119.32203389830508" y="39.33" width="24.320000000000004" height="24.320000000000004" as="geometry"/>
                </mxCell>
                <mxCell id="A0lSjFTI5e9bqqVm3xAy-103" value="Blockchain" style="editableCssRules=path;shape=image;aspect=fixed;image=data:image/svg+xml,PHN2ZyB4bWxucz0iaHR0cDovL3d3dy53My5vcmcvMjAwMC9zdmciIHZpZXdCb3g9IjAgMCA0NDggNTEyIj48IS0tISBGb250IEF3ZXNvbWUgRnJlZSA2LjQuMCBieSBAZm9udGF3ZXNvbWUgLSBodHRwczovL2ZvbnRhd2Vzb21lLmNvbSBMaWNlbnNlIC0gaHR0cHM6Ly9mb250YXdlc29tZS5jb20vbGljZW5zZS9mcmVlIChJY29uczogQ0MgQlkgNC4wLCBGb250czogU0lMIE9GTCAxLjEsIENvZGU6IE1JVCBMaWNlbnNlKSBDb3B5cmlnaHQgMjAyMyBGb250aWNvbnMsIEluYy4gLS0+PHN0eWxlIHR5cGU9InRleHQvY3NzIj5wYXRoIHtmaWxsOiMwMDAwMDA7fTwvc3R5bGU+PHBhdGggZD0iTTM2OCA4MGgzMnYzMkgzNjhWODB6TTM1MiAzMmMtMTcuNyAwLTMyIDE0LjMtMzIgMzJIMTI4YzAtMTcuNy0xNC4zLTMyLTMyLTMySDMyQzE0LjMgMzIgMCA0Ni4zIDAgNjR2NjRjMCAxNy43IDE0LjMgMzIgMzIgMzJWMzUyYy0xNy43IDAtMzIgMTQuMy0zMiAzMnY2NGMwIDE3LjcgMTQuMyAzMiAzMiAzMkg5NmMxNy43IDAgMzItMTQuMyAzMi0zMkgzMjBjMCAxNy43IDE0LjMgMzIgMzIgMzJoNjRjMTcuNyAwIDMyLTE0LjMgMzItMzJWMzg0YzAtMTcuNy0xNC4zLTMyLTMyLTMyVjE2MGMxNy43IDAgMzItMTQuMyAzMi0zMlY2NGMwLTE3LjctMTQuMy0zMi0zMi0zMkgzNTJ6TTk2IDE2MGMxNy43IDAgMzItMTQuMyAzMi0zMkgzMjBjMCAxNy43IDE0LjMgMzIgMzIgMzJWMzUyYy0xNy43IDAtMzIgMTQuMy0zMiAzMkgxMjhjMC0xNy43LTE0LjMtMzItMzItMzJWMTYwek00OCA0MDBIODB2MzJINDhWNDAwem0zMjAgMzJWNDAwaDMydjMySDM2OHpNNDggMTEyVjgwSDgwdjMySDQ4eiIvPjwvc3ZnPg==;connectable=0;movable=1;verticalLabelPosition=bottom;resizable=1;rotatable=0;cloneable=0;deletable=1;recursiveResize=0;imageBackground=none;verticalAlign=top;rounded=1;" parent="A0lSjFTI5e9bqqVm3xAy-101" vertex="1">
                    <mxGeometry x="54.237288135593225" y="40" width="23.670447761194033" height="23.670447761194033" as="geometry"/>
                </mxCell>
                <mxCell id="A0lSjFTI5e9bqqVm3xAy-104" value="" style="pointerEvents=1;shadow=0;dashed=0;html=1;strokeColor=none;fillColor=#505050;labelPosition=center;verticalLabelPosition=bottom;verticalAlign=top;outlineConnect=0;align=center;shape=mxgraph.office.concepts.node_generic;rounded=1;" parent="A0lSjFTI5e9bqqVm3xAy-101" vertex="1">
                    <mxGeometry x="10.31593220338983" y="4" width="22.2264406779661" height="28" as="geometry"/>
                </mxCell>
                <mxCell id="A0lSjFTI5e9bqqVm3xAy-105" value="Brazilian dARK Net" style="text;html=1;strokeColor=none;fillColor=none;align=center;verticalAlign=middle;whiteSpace=wrap;rounded=1;fontSize=14;" parent="A0lSjFTI5e9bqqVm3xAy-101" vertex="1">
                    <mxGeometry x="32.54237288135593" y="2" width="143.47932203389834" height="30" as="geometry"/>
                </mxCell>
                <mxCell id="A0lSjFTI5e9bqqVm3xAy-106" value="" style="whiteSpace=wrap;strokeWidth=2;verticalAlign=top;fontStyle=0;fontSize=14;fillColor=#fff2cc;strokeColor=none;rounded=1;textOpacity=50;opacity=50;" parent="A0lSjFTI5e9bqqVm3xAy-23" vertex="1">
                    <mxGeometry x="227.7966101694915" y="50" width="184.40677966101694" height="100" as="geometry"/>
                </mxCell>
                <mxCell id="A0lSjFTI5e9bqqVm3xAy-107" value="IPFS" style="editableCssRules=path;shape=image;aspect=fixed;image=data:image/svg+xml,PHN2ZyB4bWxucz0iaHR0cDovL3d3dy53My5vcmcvMjAwMC9zdmciIHZpZXdCb3g9IjAgMCA1MTIgNTEyIj48IS0tISBGb250IEF3ZXNvbWUgRnJlZSA2LjQuMCBieSBAZm9udGF3ZXNvbWUgLSBodHRwczovL2ZvbnRhd2Vzb21lLmNvbSBMaWNlbnNlIC0gaHR0cHM6Ly9mb250YXdlc29tZS5jb20vbGljZW5zZS9mcmVlIChJY29uczogQ0MgQlkgNC4wLCBGb250czogU0lMIE9GTCAxLjEsIENvZGU6IE1JVCBMaWNlbnNlKSBDb3B5cmlnaHQgMjAyMyBGb250aWNvbnMsIEluYy4gLS0+PHN0eWxlIHR5cGU9InRleHQvY3NzIj5wYXRoIHtmaWxsOiMwMDAwMDA7fTwvc3R5bGU+PHBhdGggZD0iTTI4OCAxMDkuM1YzNTJjMCAxNy43LTE0LjMgMzItMzIgMzJzLTMyLTE0LjMtMzItMzJWMTA5LjNsLTczLjQgNzMuNGMtMTIuNSAxMi41LTMyLjggMTIuNS00NS4zIDBzLTEyLjUtMzIuOCAwLTQ1LjNsMTI4LTEyOGMxMi41LTEyLjUgMzIuOC0xMi41IDQ1LjMgMGwxMjggMTI4YzEyLjUgMTIuNSAxMi41IDMyLjggMCA0NS4zcy0zMi44IDEyLjUtNDUuMyAwTDI4OCAxMDkuM3pNNjQgMzUySDE5MmMwIDM1LjMgMjguNyA2NCA2NCA2NHM2NC0yOC43IDY0LTY0SDQ0OGMzNS4zIDAgNjQgMjguNyA2NCA2NHYzMmMwIDM1LjMtMjguNyA2NC02NCA2NEg2NGMtMzUuMyAwLTY0LTI4LjctNjQtNjRWNDE2YzAtMzUuMyAyOC43LTY0IDY0LTY0ek00MzIgNDU2YTI0IDI0IDAgMSAwIDAtNDggMjQgMjQgMCAxIDAgMCA0OHoiLz48L3N2Zz4=;connectable=0;movable=1;verticalLabelPosition=bottom;resizable=1;rotatable=0;cloneable=0;deletable=1;recursiveResize=0;imageBackground=none;verticalAlign=top;rounded=1;" parent="A0lSjFTI5e9bqqVm3xAy-106" vertex="1">
                    <mxGeometry x="119.32203389830508" y="39.33" width="24.320000000000004" height="24.320000000000004" as="geometry"/>
                </mxCell>
                <mxCell id="A0lSjFTI5e9bqqVm3xAy-108" value="Blockchain" style="editableCssRules=path;shape=image;aspect=fixed;image=data:image/svg+xml,PHN2ZyB4bWxucz0iaHR0cDovL3d3dy53My5vcmcvMjAwMC9zdmciIHZpZXdCb3g9IjAgMCA0NDggNTEyIj48IS0tISBGb250IEF3ZXNvbWUgRnJlZSA2LjQuMCBieSBAZm9udGF3ZXNvbWUgLSBodHRwczovL2ZvbnRhd2Vzb21lLmNvbSBMaWNlbnNlIC0gaHR0cHM6Ly9mb250YXdlc29tZS5jb20vbGljZW5zZS9mcmVlIChJY29uczogQ0MgQlkgNC4wLCBGb250czogU0lMIE9GTCAxLjEsIENvZGU6IE1JVCBMaWNlbnNlKSBDb3B5cmlnaHQgMjAyMyBGb250aWNvbnMsIEluYy4gLS0+PHN0eWxlIHR5cGU9InRleHQvY3NzIj5wYXRoIHtmaWxsOiMwMDAwMDA7fTwvc3R5bGU+PHBhdGggZD0iTTM2OCA4MGgzMnYzMkgzNjhWODB6TTM1MiAzMmMtMTcuNyAwLTMyIDE0LjMtMzIgMzJIMTI4YzAtMTcuNy0xNC4zLTMyLTMyLTMySDMyQzE0LjMgMzIgMCA0Ni4zIDAgNjR2NjRjMCAxNy43IDE0LjMgMzIgMzIgMzJWMzUyYy0xNy43IDAtMzIgMTQuMy0zMiAzMnY2NGMwIDE3LjcgMTQuMyAzMiAzMiAzMkg5NmMxNy43IDAgMzItMTQuMyAzMi0zMkgzMjBjMCAxNy43IDE0LjMgMzIgMzIgMzJoNjRjMTcuNyAwIDMyLTE0LjMgMzItMzJWMzg0YzAtMTcuNy0xNC4zLTMyLTMyLTMyVjE2MGMxNy43IDAgMzItMTQuMyAzMi0zMlY2NGMwLTE3LjctMTQuMy0zMi0zMi0zMkgzNTJ6TTk2IDE2MGMxNy43IDAgMzItMTQuMyAzMi0zMkgzMjBjMCAxNy43IDE0LjMgMzIgMzIgMzJWMzUyYy0xNy43IDAtMzIgMTQuMy0zMiAzMkgxMjhjMC0xNy43LTE0LjMtMzItMzItMzJWMTYwek00OCA0MDBIODB2MzJINDhWNDAwem0zMjAgMzJWNDAwaDMydjMySDM2OHpNNDggMTEyVjgwSDgwdjMySDQ4eiIvPjwvc3ZnPg==;connectable=0;movable=1;verticalLabelPosition=bottom;resizable=1;rotatable=0;cloneable=0;deletable=1;recursiveResize=0;imageBackground=none;verticalAlign=top;rounded=1;" parent="A0lSjFTI5e9bqqVm3xAy-106" vertex="1">
                    <mxGeometry x="54.237288135593225" y="40" width="23.670447761194033" height="23.670447761194033" as="geometry"/>
                </mxCell>
                <mxCell id="A0lSjFTI5e9bqqVm3xAy-109" value="" style="pointerEvents=1;shadow=0;dashed=0;html=1;strokeColor=none;fillColor=#505050;labelPosition=center;verticalLabelPosition=bottom;verticalAlign=top;outlineConnect=0;align=center;shape=mxgraph.office.concepts.node_generic;rounded=1;" parent="A0lSjFTI5e9bqqVm3xAy-106" vertex="1">
                    <mxGeometry x="10.31593220338983" y="4" width="22.2264406779661" height="28" as="geometry"/>
                </mxCell>
                <mxCell id="A0lSjFTI5e9bqqVm3xAy-110" value="Latam dARK Net" style="text;html=1;strokeColor=none;fillColor=none;align=center;verticalAlign=middle;whiteSpace=wrap;rounded=1;fontSize=14;" parent="A0lSjFTI5e9bqqVm3xAy-106" vertex="1">
                    <mxGeometry x="32.54237288135593" y="2" width="143.47932203389834" height="30" as="geometry"/>
                </mxCell>
                <mxCell id="A0lSjFTI5e9bqqVm3xAy-111" value="" style="whiteSpace=wrap;strokeWidth=2;verticalAlign=top;fontStyle=0;fontSize=14;fillColor=#e1d5e7;strokeColor=none;rounded=1;opacity=50;" parent="A0lSjFTI5e9bqqVm3xAy-23" vertex="1">
                    <mxGeometry x="444.7457627118644" y="50" width="184.40677966101694" height="100" as="geometry"/>
                </mxCell>
                <mxCell id="A0lSjFTI5e9bqqVm3xAy-112" value="IPFS" style="editableCssRules=path;shape=image;aspect=fixed;image=data:image/svg+xml,PHN2ZyB4bWxucz0iaHR0cDovL3d3dy53My5vcmcvMjAwMC9zdmciIHZpZXdCb3g9IjAgMCA1MTIgNTEyIj48IS0tISBGb250IEF3ZXNvbWUgRnJlZSA2LjQuMCBieSBAZm9udGF3ZXNvbWUgLSBodHRwczovL2ZvbnRhd2Vzb21lLmNvbSBMaWNlbnNlIC0gaHR0cHM6Ly9mb250YXdlc29tZS5jb20vbGljZW5zZS9mcmVlIChJY29uczogQ0MgQlkgNC4wLCBGb250czogU0lMIE9GTCAxLjEsIENvZGU6IE1JVCBMaWNlbnNlKSBDb3B5cmlnaHQgMjAyMyBGb250aWNvbnMsIEluYy4gLS0+PHN0eWxlIHR5cGU9InRleHQvY3NzIj5wYXRoIHtmaWxsOiMwMDAwMDA7fTwvc3R5bGU+PHBhdGggZD0iTTI4OCAxMDkuM1YzNTJjMCAxNy43LTE0LjMgMzItMzIgMzJzLTMyLTE0LjMtMzItMzJWMTA5LjNsLTczLjQgNzMuNGMtMTIuNSAxMi41LTMyLjggMTIuNS00NS4zIDBzLTEyLjUtMzIuOCAwLTQ1LjNsMTI4LTEyOGMxMi41LTEyLjUgMzIuOC0xMi41IDQ1LjMgMGwxMjggMTI4YzEyLjUgMTIuNSAxMi41IDMyLjggMCA0NS4zcy0zMi44IDEyLjUtNDUuMyAwTDI4OCAxMDkuM3pNNjQgMzUySDE5MmMwIDM1LjMgMjguNyA2NCA2NCA2NHM2NC0yOC43IDY0LTY0SDQ0OGMzNS4zIDAgNjQgMjguNyA2NCA2NHYzMmMwIDM1LjMtMjguNyA2NC02NCA2NEg2NGMtMzUuMyAwLTY0LTI4LjctNjQtNjRWNDE2YzAtMzUuMyAyOC43LTY0IDY0LTY0ek00MzIgNDU2YTI0IDI0IDAgMSAwIDAtNDggMjQgMjQgMCAxIDAgMCA0OHoiLz48L3N2Zz4=;connectable=0;movable=1;verticalLabelPosition=bottom;resizable=1;rotatable=0;cloneable=0;deletable=1;recursiveResize=0;imageBackground=none;verticalAlign=top;rounded=1;" parent="A0lSjFTI5e9bqqVm3xAy-111" vertex="1">
                    <mxGeometry x="119.32203389830508" y="39.33" width="24.320000000000004" height="24.320000000000004" as="geometry"/>
                </mxCell>
                <mxCell id="A0lSjFTI5e9bqqVm3xAy-113" value="Blockchain" style="editableCssRules=path;shape=image;aspect=fixed;image=data:image/svg+xml,PHN2ZyB4bWxucz0iaHR0cDovL3d3dy53My5vcmcvMjAwMC9zdmciIHZpZXdCb3g9IjAgMCA0NDggNTEyIj48IS0tISBGb250IEF3ZXNvbWUgRnJlZSA2LjQuMCBieSBAZm9udGF3ZXNvbWUgLSBodHRwczovL2ZvbnRhd2Vzb21lLmNvbSBMaWNlbnNlIC0gaHR0cHM6Ly9mb250YXdlc29tZS5jb20vbGljZW5zZS9mcmVlIChJY29uczogQ0MgQlkgNC4wLCBGb250czogU0lMIE9GTCAxLjEsIENvZGU6IE1JVCBMaWNlbnNlKSBDb3B5cmlnaHQgMjAyMyBGb250aWNvbnMsIEluYy4gLS0+PHN0eWxlIHR5cGU9InRleHQvY3NzIj5wYXRoIHtmaWxsOiMwMDAwMDA7fTwvc3R5bGU+PHBhdGggZD0iTTM2OCA4MGgzMnYzMkgzNjhWODB6TTM1MiAzMmMtMTcuNyAwLTMyIDE0LjMtMzIgMzJIMTI4YzAtMTcuNy0xNC4zLTMyLTMyLTMySDMyQzE0LjMgMzIgMCA0Ni4zIDAgNjR2NjRjMCAxNy43IDE0LjMgMzIgMzIgMzJWMzUyYy0xNy43IDAtMzIgMTQuMy0zMiAzMnY2NGMwIDE3LjcgMTQuMyAzMiAzMiAzMkg5NmMxNy43IDAgMzItMTQuMyAzMi0zMkgzMjBjMCAxNy43IDE0LjMgMzIgMzIgMzJoNjRjMTcuNyAwIDMyLTE0LjMgMzItMzJWMzg0YzAtMTcuNy0xNC4zLTMyLTMyLTMyVjE2MGMxNy43IDAgMzItMTQuMyAzMi0zMlY2NGMwLTE3LjctMTQuMy0zMi0zMi0zMkgzNTJ6TTk2IDE2MGMxNy43IDAgMzItMTQuMyAzMi0zMkgzMjBjMCAxNy43IDE0LjMgMzIgMzIgMzJWMzUyYy0xNy43IDAtMzIgMTQuMy0zMiAzMkgxMjhjMC0xNy43LTE0LjMtMzItMzItMzJWMTYwek00OCA0MDBIODB2MzJINDhWNDAwem0zMjAgMzJWNDAwaDMydjMySDM2OHpNNDggMTEyVjgwSDgwdjMySDQ4eiIvPjwvc3ZnPg==;connectable=0;movable=1;verticalLabelPosition=bottom;resizable=1;rotatable=0;cloneable=0;deletable=1;recursiveResize=0;imageBackground=none;verticalAlign=top;rounded=1;" parent="A0lSjFTI5e9bqqVm3xAy-111" vertex="1">
                    <mxGeometry x="54.237288135593225" y="40" width="23.670447761194033" height="23.670447761194033" as="geometry"/>
                </mxCell>
                <mxCell id="A0lSjFTI5e9bqqVm3xAy-114" value="" style="pointerEvents=1;shadow=0;dashed=0;html=1;strokeColor=none;fillColor=#505050;labelPosition=center;verticalLabelPosition=bottom;verticalAlign=top;outlineConnect=0;align=center;shape=mxgraph.office.concepts.node_generic;rounded=1;" parent="A0lSjFTI5e9bqqVm3xAy-111" vertex="1">
                    <mxGeometry x="10.31593220338983" y="4" width="22.2264406779661" height="28" as="geometry"/>
                </mxCell>
                <mxCell id="A0lSjFTI5e9bqqVm3xAy-115" value="UE dARK Net" style="text;html=1;strokeColor=none;fillColor=none;align=center;verticalAlign=middle;whiteSpace=wrap;rounded=1;fontSize=14;" parent="A0lSjFTI5e9bqqVm3xAy-111" vertex="1">
                    <mxGeometry x="32.54237288135593" y="2" width="143.47932203389834" height="30" as="geometry"/>
                </mxCell>
                <mxCell id="A0lSjFTI5e9bqqVm3xAy-140" value="report" style="edgeStyle=none;rounded=1;orthogonalLoop=1;jettySize=auto;html=1;strokeWidth=2;" parent="1" edge="1">
                    <mxGeometry relative="1" as="geometry">
                        <mxPoint x="560" y="261.25" as="sourcePoint"/>
                        <mxPoint x="470" y="261.25" as="targetPoint"/>
                    </mxGeometry>
                </mxCell>
                <mxCell id="A0lSjFTI5e9bqqVm3xAy-142" value="update" style="rounded=0;orthogonalLoop=1;jettySize=auto;html=1;entryX=0.89;entryY=-0.002;entryDx=0;entryDy=0;entryPerimeter=0;strokeWidth=2;" parent="1" target="A0lSjFTI5e9bqqVm3xAy-23" edge="1">
                    <mxGeometry relative="1" as="geometry">
                        <mxPoint x="637.0285714285715" y="391.25" as="sourcePoint"/>
                        <mxPoint x="637.1599999999999" y="450" as="targetPoint"/>
                    </mxGeometry>
                </mxCell>
                <mxCell id="A0lSjFTI5e9bqqVm3xAy-66" value="dARK Service Layer" style="whiteSpace=wrap;strokeWidth=2;verticalAlign=top;fontSize=16;fontStyle=1;rounded=1;" parent="1" vertex="1">
                    <mxGeometry x="551" y="81.25" width="150" height="310" as="geometry"/>
                </mxCell>
                <mxCell id="A0lSjFTI5e9bqqVm3xAy-39" value="Quality Service" style="editableCssRules=path;shape=image;aspect=fixed;image=data:image/svg+xml,PHN2ZyB4bWxucz0iaHR0cDovL3d3dy53My5vcmcvMjAwMC9zdmciIHZpZXdCb3g9IjAgMCA1MTIgNTEyIj48IS0tISBGb250IEF3ZXNvbWUgRnJlZSA2LjQuMCBieSBAZm9udGF3ZXNvbWUgLSBodHRwczovL2ZvbnRhd2Vzb21lLmNvbSBMaWNlbnNlIC0gaHR0cHM6Ly9mb250YXdlc29tZS5jb20vbGljZW5zZS9mcmVlIChJY29uczogQ0MgQlkgNC4wLCBGb250czogU0lMIE9GTCAxLjEsIENvZGU6IE1JVCBMaWNlbnNlKSBDb3B5cmlnaHQgMjAyMyBGb250aWNvbnMsIEluYy4gLS0+PHN0eWxlIHR5cGU9InRleHQvY3NzIj5wYXRoIHtmaWxsOiMwMDAwMDA7fTwvc3R5bGU+PHBhdGggZD0iTTE5MiAzMmMwLTE3LjcgMTQuMy0zMiAzMi0zMkMzODMuMSAwIDUxMiAxMjguOSA1MTIgMjg4YzAgMTcuNy0xNC4zIDMyLTMyIDMycy0zMi0xNC4zLTMyLTMyQzQ0OCAxNjQuMyAzNDcuNyA2NCAyMjQgNjRjLTE3LjcgMC0zMi0xNC4zLTMyLTMyek02MC42IDIyMC42TDE2NC43IDMyNC43bDI4LjQtMjguNGMtLjctMi42LTEuMS01LjQtMS4xLTguM2MwLTE3LjcgMTQuMy0zMiAzMi0zMnMzMiAxNC4zIDMyIDMycy0xNC4zIDMyLTMyIDMyYy0yLjkgMC01LjYtLjQtOC4zLTEuMWwtMjguNCAyOC40TDI5MS40IDQ1MS40YzE0LjUgMTQuNSAxMS44IDM4LjgtNy4zIDQ2LjNDMjYwLjUgNTA2LjkgMjM0LjkgNTEyIDIwOCA1MTJDOTMuMSA1MTIgMCA0MTguOSAwIDMwNGMwLTI2LjkgNS4xLTUyLjUgMTQuNC03Ni4xYzcuNS0xOSAzMS44LTIxLjggNDYuMy03LjN6TTIyNCA5NmMxMDYgMCAxOTIgODYgMTkyIDE5MmMwIDE3LjctMTQuMyAzMi0zMiAzMnMtMzItMTQuMy0zMi0zMmMwLTcwLjctNTcuMy0xMjgtMTI4LTEyOGMtMTcuNyAwLTMyLTE0LjMtMzItMzJzMTQuMy0zMiAzMi0zMnoiLz48L3N2Zz4=;connectable=0;movable=1;verticalLabelPosition=bottom;resizable=1;rotatable=0;cloneable=0;deletable=1;recursiveResize=0;imageBackground=none;verticalAlign=top;rounded=1;" parent="A0lSjFTI5e9bqqVm3xAy-66" vertex="1">
                    <mxGeometry x="42.857142857142854" y="79.77941176470588" width="50.625" height="50.625" as="geometry"/>
                </mxCell>
                <mxCell id="2" value="Search Service" style="sketch=0;pointerEvents=1;shadow=0;dashed=0;html=1;labelPosition=center;verticalLabelPosition=bottom;verticalAlign=top;outlineConnect=0;align=center;shape=mxgraph.office.concepts.search;fillColor=#000000;" vertex="1" parent="A0lSjFTI5e9bqqVm3xAy-66">
                    <mxGeometry x="50.5" y="198.75" width="49" height="49" as="geometry"/>
                </mxCell>
                <mxCell id="RpSKrlZ48StNRSg9d6U9-24" value="use" style="rounded=0;hachureGap=4;orthogonalLoop=1;jettySize=auto;html=1;fontFamily=Helvetica;fontSize=12;dashed=1;" parent="1" source="RpSKrlZ48StNRSg9d6U9-6" target="A0lSjFTI5e9bqqVm3xAy-101" edge="1">
                    <mxGeometry relative="1" as="geometry"/>
                </mxCell>
                <mxCell id="RpSKrlZ48StNRSg9d6U9-25" style="rounded=0;orthogonalLoop=1;jettySize=auto;html=1;dashed=1;entryX=0.484;entryY=-0.064;entryDx=0;entryDy=0;entryPerimeter=0;" parent="1" edge="1">
                    <mxGeometry relative="1" as="geometry">
                        <mxPoint x="193.4228076515576" y="600" as="sourcePoint"/>
                        <mxPoint x="193.85009355932198" y="710.0799999999999" as="targetPoint"/>
                    </mxGeometry>
                </mxCell>
                <mxCell id="RpSKrlZ48StNRSg9d6U9-6" value="" style="whiteSpace=wrap;strokeWidth=2;verticalAlign=top;fontStyle=0;fontSize=14;fillColor=#d5e8d4;strokeColor=none;rounded=1;opacity=50;" parent="1" vertex="1">
                    <mxGeometry x="88.8637288135593" y="710" width="184.40677966101694" height="100" as="geometry"/>
                </mxCell>
                <mxCell id="RpSKrlZ48StNRSg9d6U9-10" value="Brazilian Users" style="text;html=1;strokeColor=none;fillColor=none;align=center;verticalAlign=middle;whiteSpace=wrap;rounded=1;fontSize=14;" parent="RpSKrlZ48StNRSg9d6U9-6" vertex="1">
                    <mxGeometry x="32.54237288135593" y="2" width="143.47932203389834" height="30" as="geometry"/>
                </mxCell>
                <mxCell id="RpSKrlZ48StNRSg9d6U9-21" value="" style="editableCssRules=path;shape=image;aspect=fixed;image=data:image/svg+xml,PHN2ZyB4bWxucz0iaHR0cDovL3d3dy53My5vcmcvMjAwMC9zdmciIHZpZXdCb3g9IjAgMCA1MTIgNTEyIj48IS0tISBGb250IEF3ZXNvbWUgRnJlZSA2LjQuMCBieSBAZm9udGF3ZXNvbWUgLSBodHRwczovL2ZvbnRhd2Vzb21lLmNvbSBMaWNlbnNlIC0gaHR0cHM6Ly9mb250YXdlc29tZS5jb20vbGljZW5zZS9mcmVlIChJY29uczogQ0MgQlkgNC4wLCBGb250czogU0lMIE9GTCAxLjEsIENvZGU6IE1JVCBMaWNlbnNlKSBDb3B5cmlnaHQgMjAyMyBGb250aWNvbnMsIEluYy4gLS0+PHN0eWxlIHR5cGU9InRleHQvY3NzIj5wYXRoIHtmaWxsOiMwMDAwMDA7fTwvc3R5bGU+PHBhdGggZD0iTTI0My40IDIuNmwtMjI0IDk2Yy0xNCA2LTIxLjggMjEtMTguNyAzNS44UzE2LjggMTYwIDMyIDE2MHY4YzAgMTMuMyAxMC43IDI0IDI0IDI0SDQ1NmMxMy4zIDAgMjQtMTAuNyAyNC0yNHYtOGMxNS4yIDAgMjguMy0xMC43IDMxLjMtMjUuNnMtNC44LTI5LjktMTguNy0zNS44bC0yMjQtOTZjLTgtMy40LTE3LjItMy40LTI1LjIgMHpNMTI4IDIyNEg2NFY0MjAuM2MtLjYgLjMtMS4yIC43LTEuOCAxLjFsLTQ4IDMyYy0xMS43IDcuOC0xNyAyMi40LTEyLjkgMzUuOVMxNy45IDUxMiAzMiA1MTJINDgwYzE0LjEgMCAyNi41LTkuMiAzMC42LTIyLjdzLTEuMS0yOC4xLTEyLjktMzUuOWwtNDgtMzJjLS42LS40LTEuMi0uNy0xLjgtMS4xVjIyNEgzODRWNDE2SDM0NFYyMjRIMjgwVjQxNkgyMzJWMjI0SDE2OFY0MTZIMTI4VjIyNHpNMjU2IDY0YTMyIDMyIDAgMSAxIDAgNjQgMzIgMzIgMCAxIDEgMC02NHoiLz48L3N2Zz4=;connectable=0;movable=1;verticalLabelPosition=bottom;resizable=1;rotatable=0;cloneable=0;deletable=1;recursiveResize=0;imageBackground=none;verticalAlign=top;hachureGap=4;fontFamily=Architects Daughter;fontSource=https%3A%2F%2Ffonts.googleapis.com%2Fcss%3Ffamily%3DArchitects%2BDaughter;fontSize=20;" parent="RpSKrlZ48StNRSg9d6U9-6" vertex="1">
                    <mxGeometry x="10.540000000000001" y="2" width="31" height="31" as="geometry"/>
                </mxCell>
                <mxCell id="RpSKrlZ48StNRSg9d6U9-22" value="br_org_1" style="editableCssRules=path;shape=image;aspect=fixed;image=data:image/svg+xml,PHN2ZyB4bWxucz0iaHR0cDovL3d3dy53My5vcmcvMjAwMC9zdmciIHZpZXdCb3g9IjAgMCAzODQgNTEyIj48IS0tISBGb250IEF3ZXNvbWUgRnJlZSA2LjQuMCBieSBAZm9udGF3ZXNvbWUgLSBodHRwczovL2ZvbnRhd2Vzb21lLmNvbSBMaWNlbnNlIC0gaHR0cHM6Ly9mb250YXdlc29tZS5jb20vbGljZW5zZS9mcmVlIChJY29uczogQ0MgQlkgNC4wLCBGb250czogU0lMIE9GTCAxLjEsIENvZGU6IE1JVCBMaWNlbnNlKSBDb3B5cmlnaHQgMjAyMyBGb250aWNvbnMsIEluYy4gLS0+PHN0eWxlIHR5cGU9InRleHQvY3NzIj5wYXRoIHtmaWxsOiMwMDAwMDA7fTwvc3R5bGU+PHBhdGggZD0iTTQ4IDBDMjEuNSAwIDAgMjEuNSAwIDQ4VjQ2NGMwIDI2LjUgMjEuNSA0OCA0OCA0OGg5NlY0MzJjMC0yNi41IDIxLjUtNDggNDgtNDhzNDggMjEuNSA0OCA0OHY4MGg5NmMyNi41IDAgNDgtMjEuNSA0OC00OFY0OGMwLTI2LjUtMjEuNS00OC00OC00OEg0OHpNNjQgMjQwYzAtOC44IDcuMi0xNiAxNi0xNmgzMmM4LjggMCAxNiA3LjIgMTYgMTZ2MzJjMCA4LjgtNy4yIDE2LTE2IDE2SDgwYy04LjggMC0xNi03LjItMTYtMTZWMjQwem0xMTItMTZoMzJjOC44IDAgMTYgNy4yIDE2IDE2djMyYzAgOC44LTcuMiAxNi0xNiAxNkgxNzZjLTguOCAwLTE2LTcuMi0xNi0xNlYyNDBjMC04LjggNy4yLTE2IDE2LTE2em04MCAxNmMwLTguOCA3LjItMTYgMTYtMTZoMzJjOC44IDAgMTYgNy4yIDE2IDE2djMyYzAgOC44LTcuMiAxNi0xNiAxNkgyNzJjLTguOCAwLTE2LTcuMi0xNi0xNlYyNDB6TTgwIDk2aDMyYzguOCAwIDE2IDcuMiAxNiAxNnYzMmMwIDguOC03LjIgMTYtMTYgMTZIODBjLTguOCAwLTE2LTcuMi0xNi0xNlYxMTJjMC04LjggNy4yLTE2IDE2LTE2em04MCAxNmMwLTguOCA3LjItMTYgMTYtMTZoMzJjOC44IDAgMTYgNy4yIDE2IDE2djMyYzAgOC44LTcuMiAxNi0xNiAxNkgxNzZjLTguOCAwLTE2LTcuMi0xNi0xNlYxMTJ6TTI3MiA5NmgzMmM4LjggMCAxNiA3LjIgMTYgMTZ2MzJjMCA4LjgtNy4yIDE2LTE2IDE2SDI3MmMtOC44IDAtMTYtNy4yLTE2LTE2VjExMmMwLTguOCA3LjItMTYgMTYtMTZ6Ii8+PC9zdmc+;connectable=0;movable=1;verticalLabelPosition=bottom;resizable=1;rotatable=0;cloneable=0;deletable=1;recursiveResize=0;imageBackground=none;verticalAlign=top;hachureGap=4;fontFamily=Helvetica;fontSize=12;" parent="RpSKrlZ48StNRSg9d6U9-6" vertex="1">
                    <mxGeometry x="60" y="40" width="25" height="25" as="geometry"/>
                </mxCell>
                <mxCell id="RpSKrlZ48StNRSg9d6U9-23" value="br_org_2" style="editableCssRules=path;shape=image;aspect=fixed;image=data:image/svg+xml,PHN2ZyB4bWxucz0iaHR0cDovL3d3dy53My5vcmcvMjAwMC9zdmciIHZpZXdCb3g9IjAgMCAzODQgNTEyIj48IS0tISBGb250IEF3ZXNvbWUgRnJlZSA2LjQuMCBieSBAZm9udGF3ZXNvbWUgLSBodHRwczovL2ZvbnRhd2Vzb21lLmNvbSBMaWNlbnNlIC0gaHR0cHM6Ly9mb250YXdlc29tZS5jb20vbGljZW5zZS9mcmVlIChJY29uczogQ0MgQlkgNC4wLCBGb250czogU0lMIE9GTCAxLjEsIENvZGU6IE1JVCBMaWNlbnNlKSBDb3B5cmlnaHQgMjAyMyBGb250aWNvbnMsIEluYy4gLS0+PHN0eWxlIHR5cGU9InRleHQvY3NzIj5wYXRoIHtmaWxsOiMwMDAwMDA7fTwvc3R5bGU+PHBhdGggZD0iTTQ4IDBDMjEuNSAwIDAgMjEuNSAwIDQ4VjQ2NGMwIDI2LjUgMjEuNSA0OCA0OCA0OGg5NlY0MzJjMC0yNi41IDIxLjUtNDggNDgtNDhzNDggMjEuNSA0OCA0OHY4MGg5NmMyNi41IDAgNDgtMjEuNSA0OC00OFY0OGMwLTI2LjUtMjEuNS00OC00OC00OEg0OHpNNjQgMjQwYzAtOC44IDcuMi0xNiAxNi0xNmgzMmM4LjggMCAxNiA3LjIgMTYgMTZ2MzJjMCA4LjgtNy4yIDE2LTE2IDE2SDgwYy04LjggMC0xNi03LjItMTYtMTZWMjQwem0xMTItMTZoMzJjOC44IDAgMTYgNy4yIDE2IDE2djMyYzAgOC44LTcuMiAxNi0xNiAxNkgxNzZjLTguOCAwLTE2LTcuMi0xNi0xNlYyNDBjMC04LjggNy4yLTE2IDE2LTE2em04MCAxNmMwLTguOCA3LjItMTYgMTYtMTZoMzJjOC44IDAgMTYgNy4yIDE2IDE2djMyYzAgOC44LTcuMiAxNi0xNiAxNkgyNzJjLTguOCAwLTE2LTcuMi0xNi0xNlYyNDB6TTgwIDk2aDMyYzguOCAwIDE2IDcuMiAxNiAxNnYzMmMwIDguOC03LjIgMTYtMTYgMTZIODBjLTguOCAwLTE2LTcuMi0xNi0xNlYxMTJjMC04LjggNy4yLTE2IDE2LTE2em04MCAxNmMwLTguOCA3LjItMTYgMTYtMTZoMzJjOC44IDAgMTYgNy4yIDE2IDE2djMyYzAgOC44LTcuMiAxNi0xNiAxNkgxNzZjLTguOCAwLTE2LTcuMi0xNi0xNlYxMTJ6TTI3MiA5NmgzMmM4LjggMCAxNiA3LjIgMTYgMTZ2MzJjMCA4LjgtNy4yIDE2LTE2IDE2SDI3MmMtOC44IDAtMTYtNy4yLTE2LTE2VjExMmMwLTguOCA3LjItMTYgMTYtMTZ6Ii8+PC9zdmc+;connectable=0;movable=1;verticalLabelPosition=bottom;resizable=1;rotatable=0;cloneable=0;deletable=1;recursiveResize=0;imageBackground=none;verticalAlign=top;hachureGap=4;fontFamily=Helvetica;fontSize=12;" parent="RpSKrlZ48StNRSg9d6U9-6" vertex="1">
                    <mxGeometry x="130" y="40" width="25" height="25" as="geometry"/>
                </mxCell>
                <mxCell id="RpSKrlZ48StNRSg9d6U9-36" value="use" style="edgeStyle=orthogonalEdgeStyle;rounded=0;orthogonalLoop=1;jettySize=auto;html=1;dashed=1;fontSize=12;" parent="1" source="RpSKrlZ48StNRSg9d6U9-26" target="A0lSjFTI5e9bqqVm3xAy-106" edge="1">
                    <mxGeometry relative="1" as="geometry"/>
                </mxCell>
                <mxCell id="RpSKrlZ48StNRSg9d6U9-26" value="" style="whiteSpace=wrap;strokeWidth=2;verticalAlign=top;fontStyle=0;fontSize=14;fillColor=#FFF2CC;strokeColor=none;rounded=1;opacity=50;" parent="1" vertex="1">
                    <mxGeometry x="297.79372881355926" y="710" width="184.40677966101694" height="100" as="geometry"/>
                </mxCell>
                <mxCell id="RpSKrlZ48StNRSg9d6U9-27" value="Latam Users" style="text;html=1;strokeColor=none;fillColor=none;align=center;verticalAlign=middle;whiteSpace=wrap;rounded=1;fontSize=14;" parent="RpSKrlZ48StNRSg9d6U9-26" vertex="1">
                    <mxGeometry x="32.54237288135593" y="2" width="143.47932203389834" height="30" as="geometry"/>
                </mxCell>
                <mxCell id="RpSKrlZ48StNRSg9d6U9-28" value="" style="editableCssRules=path;shape=image;aspect=fixed;image=data:image/svg+xml,PHN2ZyB4bWxucz0iaHR0cDovL3d3dy53My5vcmcvMjAwMC9zdmciIHZpZXdCb3g9IjAgMCA1MTIgNTEyIj48IS0tISBGb250IEF3ZXNvbWUgRnJlZSA2LjQuMCBieSBAZm9udGF3ZXNvbWUgLSBodHRwczovL2ZvbnRhd2Vzb21lLmNvbSBMaWNlbnNlIC0gaHR0cHM6Ly9mb250YXdlc29tZS5jb20vbGljZW5zZS9mcmVlIChJY29uczogQ0MgQlkgNC4wLCBGb250czogU0lMIE9GTCAxLjEsIENvZGU6IE1JVCBMaWNlbnNlKSBDb3B5cmlnaHQgMjAyMyBGb250aWNvbnMsIEluYy4gLS0+PHN0eWxlIHR5cGU9InRleHQvY3NzIj5wYXRoIHtmaWxsOiMwMDAwMDA7fTwvc3R5bGU+PHBhdGggZD0iTTI0My40IDIuNmwtMjI0IDk2Yy0xNCA2LTIxLjggMjEtMTguNyAzNS44UzE2LjggMTYwIDMyIDE2MHY4YzAgMTMuMyAxMC43IDI0IDI0IDI0SDQ1NmMxMy4zIDAgMjQtMTAuNyAyNC0yNHYtOGMxNS4yIDAgMjguMy0xMC43IDMxLjMtMjUuNnMtNC44LTI5LjktMTguNy0zNS44bC0yMjQtOTZjLTgtMy40LTE3LjItMy40LTI1LjIgMHpNMTI4IDIyNEg2NFY0MjAuM2MtLjYgLjMtMS4yIC43LTEuOCAxLjFsLTQ4IDMyYy0xMS43IDcuOC0xNyAyMi40LTEyLjkgMzUuOVMxNy45IDUxMiAzMiA1MTJINDgwYzE0LjEgMCAyNi41LTkuMiAzMC42LTIyLjdzLTEuMS0yOC4xLTEyLjktMzUuOWwtNDgtMzJjLS42LS40LTEuMi0uNy0xLjgtMS4xVjIyNEgzODRWNDE2SDM0NFYyMjRIMjgwVjQxNkgyMzJWMjI0SDE2OFY0MTZIMTI4VjIyNHpNMjU2IDY0YTMyIDMyIDAgMSAxIDAgNjQgMzIgMzIgMCAxIDEgMC02NHoiLz48L3N2Zz4=;connectable=0;movable=1;verticalLabelPosition=bottom;resizable=1;rotatable=0;cloneable=0;deletable=1;recursiveResize=0;imageBackground=none;verticalAlign=top;hachureGap=4;fontFamily=Architects Daughter;fontSource=https%3A%2F%2Ffonts.googleapis.com%2Fcss%3Ffamily%3DArchitects%2BDaughter;fontSize=20;" parent="RpSKrlZ48StNRSg9d6U9-26" vertex="1">
                    <mxGeometry x="10.540000000000001" y="2" width="31" height="31" as="geometry"/>
                </mxCell>
                <mxCell id="RpSKrlZ48StNRSg9d6U9-29" value="ar_org_1" style="editableCssRules=path;shape=image;aspect=fixed;image=data:image/svg+xml,PHN2ZyB4bWxucz0iaHR0cDovL3d3dy53My5vcmcvMjAwMC9zdmciIHZpZXdCb3g9IjAgMCAzODQgNTEyIj48IS0tISBGb250IEF3ZXNvbWUgRnJlZSA2LjQuMCBieSBAZm9udGF3ZXNvbWUgLSBodHRwczovL2ZvbnRhd2Vzb21lLmNvbSBMaWNlbnNlIC0gaHR0cHM6Ly9mb250YXdlc29tZS5jb20vbGljZW5zZS9mcmVlIChJY29uczogQ0MgQlkgNC4wLCBGb250czogU0lMIE9GTCAxLjEsIENvZGU6IE1JVCBMaWNlbnNlKSBDb3B5cmlnaHQgMjAyMyBGb250aWNvbnMsIEluYy4gLS0+PHN0eWxlIHR5cGU9InRleHQvY3NzIj5wYXRoIHtmaWxsOiMwMDAwMDA7fTwvc3R5bGU+PHBhdGggZD0iTTQ4IDBDMjEuNSAwIDAgMjEuNSAwIDQ4VjQ2NGMwIDI2LjUgMjEuNSA0OCA0OCA0OGg5NlY0MzJjMC0yNi41IDIxLjUtNDggNDgtNDhzNDggMjEuNSA0OCA0OHY4MGg5NmMyNi41IDAgNDgtMjEuNSA0OC00OFY0OGMwLTI2LjUtMjEuNS00OC00OC00OEg0OHpNNjQgMjQwYzAtOC44IDcuMi0xNiAxNi0xNmgzMmM4LjggMCAxNiA3LjIgMTYgMTZ2MzJjMCA4LjgtNy4yIDE2LTE2IDE2SDgwYy04LjggMC0xNi03LjItMTYtMTZWMjQwem0xMTItMTZoMzJjOC44IDAgMTYgNy4yIDE2IDE2djMyYzAgOC44LTcuMiAxNi0xNiAxNkgxNzZjLTguOCAwLTE2LTcuMi0xNi0xNlYyNDBjMC04LjggNy4yLTE2IDE2LTE2em04MCAxNmMwLTguOCA3LjItMTYgMTYtMTZoMzJjOC44IDAgMTYgNy4yIDE2IDE2djMyYzAgOC44LTcuMiAxNi0xNiAxNkgyNzJjLTguOCAwLTE2LTcuMi0xNi0xNlYyNDB6TTgwIDk2aDMyYzguOCAwIDE2IDcuMiAxNiAxNnYzMmMwIDguOC03LjIgMTYtMTYgMTZIODBjLTguOCAwLTE2LTcuMi0xNi0xNlYxMTJjMC04LjggNy4yLTE2IDE2LTE2em04MCAxNmMwLTguOCA3LjItMTYgMTYtMTZoMzJjOC44IDAgMTYgNy4yIDE2IDE2djMyYzAgOC44LTcuMiAxNi0xNiAxNkgxNzZjLTguOCAwLTE2LTcuMi0xNi0xNlYxMTJ6TTI3MiA5NmgzMmM4LjggMCAxNiA3LjIgMTYgMTZ2MzJjMCA4LjgtNy4yIDE2LTE2IDE2SDI3MmMtOC44IDAtMTYtNy4yLTE2LTE2VjExMmMwLTguOCA3LjItMTYgMTYtMTZ6Ii8+PC9zdmc+;connectable=0;movable=1;verticalLabelPosition=bottom;resizable=1;rotatable=0;cloneable=0;deletable=1;recursiveResize=0;imageBackground=none;verticalAlign=top;hachureGap=4;fontFamily=Helvetica;fontSize=12;" parent="RpSKrlZ48StNRSg9d6U9-26" vertex="1">
                    <mxGeometry x="60" y="40" width="25" height="25" as="geometry"/>
                </mxCell>
                <mxCell id="RpSKrlZ48StNRSg9d6U9-30" value="ch_org_2" style="editableCssRules=path;shape=image;aspect=fixed;image=data:image/svg+xml,PHN2ZyB4bWxucz0iaHR0cDovL3d3dy53My5vcmcvMjAwMC9zdmciIHZpZXdCb3g9IjAgMCAzODQgNTEyIj48IS0tISBGb250IEF3ZXNvbWUgRnJlZSA2LjQuMCBieSBAZm9udGF3ZXNvbWUgLSBodHRwczovL2ZvbnRhd2Vzb21lLmNvbSBMaWNlbnNlIC0gaHR0cHM6Ly9mb250YXdlc29tZS5jb20vbGljZW5zZS9mcmVlIChJY29uczogQ0MgQlkgNC4wLCBGb250czogU0lMIE9GTCAxLjEsIENvZGU6IE1JVCBMaWNlbnNlKSBDb3B5cmlnaHQgMjAyMyBGb250aWNvbnMsIEluYy4gLS0+PHN0eWxlIHR5cGU9InRleHQvY3NzIj5wYXRoIHtmaWxsOiMwMDAwMDA7fTwvc3R5bGU+PHBhdGggZD0iTTQ4IDBDMjEuNSAwIDAgMjEuNSAwIDQ4VjQ2NGMwIDI2LjUgMjEuNSA0OCA0OCA0OGg5NlY0MzJjMC0yNi41IDIxLjUtNDggNDgtNDhzNDggMjEuNSA0OCA0OHY4MGg5NmMyNi41IDAgNDgtMjEuNSA0OC00OFY0OGMwLTI2LjUtMjEuNS00OC00OC00OEg0OHpNNjQgMjQwYzAtOC44IDcuMi0xNiAxNi0xNmgzMmM4LjggMCAxNiA3LjIgMTYgMTZ2MzJjMCA4LjgtNy4yIDE2LTE2IDE2SDgwYy04LjggMC0xNi03LjItMTYtMTZWMjQwem0xMTItMTZoMzJjOC44IDAgMTYgNy4yIDE2IDE2djMyYzAgOC44LTcuMiAxNi0xNiAxNkgxNzZjLTguOCAwLTE2LTcuMi0xNi0xNlYyNDBjMC04LjggNy4yLTE2IDE2LTE2em04MCAxNmMwLTguOCA3LjItMTYgMTYtMTZoMzJjOC44IDAgMTYgNy4yIDE2IDE2djMyYzAgOC44LTcuMiAxNi0xNiAxNkgyNzJjLTguOCAwLTE2LTcuMi0xNi0xNlYyNDB6TTgwIDk2aDMyYzguOCAwIDE2IDcuMiAxNiAxNnYzMmMwIDguOC03LjIgMTYtMTYgMTZIODBjLTguOCAwLTE2LTcuMi0xNi0xNlYxMTJjMC04LjggNy4yLTE2IDE2LTE2em04MCAxNmMwLTguOCA3LjItMTYgMTYtMTZoMzJjOC44IDAgMTYgNy4yIDE2IDE2djMyYzAgOC44LTcuMiAxNi0xNiAxNkgxNzZjLTguOCAwLTE2LTcuMi0xNi0xNlYxMTJ6TTI3MiA5NmgzMmM4LjggMCAxNiA3LjIgMTYgMTZ2MzJjMCA4LjgtNy4yIDE2LTE2IDE2SDI3MmMtOC44IDAtMTYtNy4yLTE2LTE2VjExMmMwLTguOCA3LjItMTYgMTYtMTZ6Ii8+PC9zdmc+;connectable=0;movable=1;verticalLabelPosition=bottom;resizable=1;rotatable=0;cloneable=0;deletable=1;recursiveResize=0;imageBackground=none;verticalAlign=top;hachureGap=4;fontFamily=Helvetica;fontSize=12;" parent="RpSKrlZ48StNRSg9d6U9-26" vertex="1">
                    <mxGeometry x="130" y="40" width="25" height="25" as="geometry"/>
                </mxCell>
                <mxCell id="RpSKrlZ48StNRSg9d6U9-42" style="edgeStyle=orthogonalEdgeStyle;rounded=0;orthogonalLoop=1;jettySize=auto;html=1;entryX=0.474;entryY=1;entryDx=0;entryDy=0;entryPerimeter=0;dashed=1;exitX=0.475;exitY=-0.038;exitDx=0;exitDy=0;exitPerimeter=0;" parent="1" source="RpSKrlZ48StNRSg9d6U9-32" edge="1">
                    <mxGeometry relative="1" as="geometry">
                        <mxPoint x="610.1545762711871" y="730" as="sourcePoint"/>
                        <mxPoint x="610.1545762711871" y="600" as="targetPoint"/>
                    </mxGeometry>
                </mxCell>
                <mxCell id="RpSKrlZ48StNRSg9d6U9-31" value="" style="whiteSpace=wrap;strokeWidth=2;verticalAlign=top;fontStyle=0;fontSize=14;fillColor=#e1d5e6;strokeColor=none;rounded=1;opacity=50;" parent="1" vertex="1">
                    <mxGeometry x="510.0037288135593" y="710" width="184.40677966101694" height="100" as="geometry"/>
                </mxCell>
                <mxCell id="RpSKrlZ48StNRSg9d6U9-32" value="UE Users" style="text;html=1;strokeColor=none;fillColor=none;align=center;verticalAlign=middle;whiteSpace=wrap;rounded=1;fontSize=14;" parent="RpSKrlZ48StNRSg9d6U9-31" vertex="1">
                    <mxGeometry x="32.54237288135593" y="2" width="143.47932203389834" height="30" as="geometry"/>
                </mxCell>
                <mxCell id="RpSKrlZ48StNRSg9d6U9-33" value="" style="editableCssRules=path;shape=image;aspect=fixed;image=data:image/svg+xml,PHN2ZyB4bWxucz0iaHR0cDovL3d3dy53My5vcmcvMjAwMC9zdmciIHZpZXdCb3g9IjAgMCA1MTIgNTEyIj48IS0tISBGb250IEF3ZXNvbWUgRnJlZSA2LjQuMCBieSBAZm9udGF3ZXNvbWUgLSBodHRwczovL2ZvbnRhd2Vzb21lLmNvbSBMaWNlbnNlIC0gaHR0cHM6Ly9mb250YXdlc29tZS5jb20vbGljZW5zZS9mcmVlIChJY29uczogQ0MgQlkgNC4wLCBGb250czogU0lMIE9GTCAxLjEsIENvZGU6IE1JVCBMaWNlbnNlKSBDb3B5cmlnaHQgMjAyMyBGb250aWNvbnMsIEluYy4gLS0+PHN0eWxlIHR5cGU9InRleHQvY3NzIj5wYXRoIHtmaWxsOiMwMDAwMDA7fTwvc3R5bGU+PHBhdGggZD0iTTI0My40IDIuNmwtMjI0IDk2Yy0xNCA2LTIxLjggMjEtMTguNyAzNS44UzE2LjggMTYwIDMyIDE2MHY4YzAgMTMuMyAxMC43IDI0IDI0IDI0SDQ1NmMxMy4zIDAgMjQtMTAuNyAyNC0yNHYtOGMxNS4yIDAgMjguMy0xMC43IDMxLjMtMjUuNnMtNC44LTI5LjktMTguNy0zNS44bC0yMjQtOTZjLTgtMy40LTE3LjItMy40LTI1LjIgMHpNMTI4IDIyNEg2NFY0MjAuM2MtLjYgLjMtMS4yIC43LTEuOCAxLjFsLTQ4IDMyYy0xMS43IDcuOC0xNyAyMi40LTEyLjkgMzUuOVMxNy45IDUxMiAzMiA1MTJINDgwYzE0LjEgMCAyNi41LTkuMiAzMC42LTIyLjdzLTEuMS0yOC4xLTEyLjktMzUuOWwtNDgtMzJjLS42LS40LTEuMi0uNy0xLjgtMS4xVjIyNEgzODRWNDE2SDM0NFYyMjRIMjgwVjQxNkgyMzJWMjI0SDE2OFY0MTZIMTI4VjIyNHpNMjU2IDY0YTMyIDMyIDAgMSAxIDAgNjQgMzIgMzIgMCAxIDEgMC02NHoiLz48L3N2Zz4=;connectable=0;movable=1;verticalLabelPosition=bottom;resizable=1;rotatable=0;cloneable=0;deletable=1;recursiveResize=0;imageBackground=none;verticalAlign=top;hachureGap=4;fontFamily=Architects Daughter;fontSource=https%3A%2F%2Ffonts.googleapis.com%2Fcss%3Ffamily%3DArchitects%2BDaughter;fontSize=20;" parent="RpSKrlZ48StNRSg9d6U9-31" vertex="1">
                    <mxGeometry x="10.540000000000001" y="2" width="31" height="31" as="geometry"/>
                </mxCell>
                <mxCell id="RpSKrlZ48StNRSg9d6U9-34" value="pt_org_1" style="editableCssRules=path;shape=image;aspect=fixed;image=data:image/svg+xml,PHN2ZyB4bWxucz0iaHR0cDovL3d3dy53My5vcmcvMjAwMC9zdmciIHZpZXdCb3g9IjAgMCAzODQgNTEyIj48IS0tISBGb250IEF3ZXNvbWUgRnJlZSA2LjQuMCBieSBAZm9udGF3ZXNvbWUgLSBodHRwczovL2ZvbnRhd2Vzb21lLmNvbSBMaWNlbnNlIC0gaHR0cHM6Ly9mb250YXdlc29tZS5jb20vbGljZW5zZS9mcmVlIChJY29uczogQ0MgQlkgNC4wLCBGb250czogU0lMIE9GTCAxLjEsIENvZGU6IE1JVCBMaWNlbnNlKSBDb3B5cmlnaHQgMjAyMyBGb250aWNvbnMsIEluYy4gLS0+PHN0eWxlIHR5cGU9InRleHQvY3NzIj5wYXRoIHtmaWxsOiMwMDAwMDA7fTwvc3R5bGU+PHBhdGggZD0iTTQ4IDBDMjEuNSAwIDAgMjEuNSAwIDQ4VjQ2NGMwIDI2LjUgMjEuNSA0OCA0OCA0OGg5NlY0MzJjMC0yNi41IDIxLjUtNDggNDgtNDhzNDggMjEuNSA0OCA0OHY4MGg5NmMyNi41IDAgNDgtMjEuNSA0OC00OFY0OGMwLTI2LjUtMjEuNS00OC00OC00OEg0OHpNNjQgMjQwYzAtOC44IDcuMi0xNiAxNi0xNmgzMmM4LjggMCAxNiA3LjIgMTYgMTZ2MzJjMCA4LjgtNy4yIDE2LTE2IDE2SDgwYy04LjggMC0xNi03LjItMTYtMTZWMjQwem0xMTItMTZoMzJjOC44IDAgMTYgNy4yIDE2IDE2djMyYzAgOC44LTcuMiAxNi0xNiAxNkgxNzZjLTguOCAwLTE2LTcuMi0xNi0xNlYyNDBjMC04LjggNy4yLTE2IDE2LTE2em04MCAxNmMwLTguOCA3LjItMTYgMTYtMTZoMzJjOC44IDAgMTYgNy4yIDE2IDE2djMyYzAgOC44LTcuMiAxNi0xNiAxNkgyNzJjLTguOCAwLTE2LTcuMi0xNi0xNlYyNDB6TTgwIDk2aDMyYzguOCAwIDE2IDcuMiAxNiAxNnYzMmMwIDguOC03LjIgMTYtMTYgMTZIODBjLTguOCAwLTE2LTcuMi0xNi0xNlYxMTJjMC04LjggNy4yLTE2IDE2LTE2em04MCAxNmMwLTguOCA3LjItMTYgMTYtMTZoMzJjOC44IDAgMTYgNy4yIDE2IDE2djMyYzAgOC44LTcuMiAxNi0xNiAxNkgxNzZjLTguOCAwLTE2LTcuMi0xNi0xNlYxMTJ6TTI3MiA5NmgzMmM4LjggMCAxNiA3LjIgMTYgMTZ2MzJjMCA4LjgtNy4yIDE2LTE2IDE2SDI3MmMtOC44IDAtMTYtNy4yLTE2LTE2VjExMmMwLTguOCA3LjItMTYgMTYtMTZ6Ii8+PC9zdmc+;connectable=0;movable=1;verticalLabelPosition=bottom;resizable=1;rotatable=0;cloneable=0;deletable=1;recursiveResize=0;imageBackground=none;verticalAlign=top;hachureGap=4;fontFamily=Helvetica;fontSize=12;" parent="RpSKrlZ48StNRSg9d6U9-31" vertex="1">
                    <mxGeometry x="60" y="40" width="25" height="25" as="geometry"/>
                </mxCell>
                <mxCell id="RpSKrlZ48StNRSg9d6U9-35" value="fr_org_2" style="editableCssRules=path;shape=image;aspect=fixed;image=data:image/svg+xml,PHN2ZyB4bWxucz0iaHR0cDovL3d3dy53My5vcmcvMjAwMC9zdmciIHZpZXdCb3g9IjAgMCAzODQgNTEyIj48IS0tISBGb250IEF3ZXNvbWUgRnJlZSA2LjQuMCBieSBAZm9udGF3ZXNvbWUgLSBodHRwczovL2ZvbnRhd2Vzb21lLmNvbSBMaWNlbnNlIC0gaHR0cHM6Ly9mb250YXdlc29tZS5jb20vbGljZW5zZS9mcmVlIChJY29uczogQ0MgQlkgNC4wLCBGb250czogU0lMIE9GTCAxLjEsIENvZGU6IE1JVCBMaWNlbnNlKSBDb3B5cmlnaHQgMjAyMyBGb250aWNvbnMsIEluYy4gLS0+PHN0eWxlIHR5cGU9InRleHQvY3NzIj5wYXRoIHtmaWxsOiMwMDAwMDA7fTwvc3R5bGU+PHBhdGggZD0iTTQ4IDBDMjEuNSAwIDAgMjEuNSAwIDQ4VjQ2NGMwIDI2LjUgMjEuNSA0OCA0OCA0OGg5NlY0MzJjMC0yNi41IDIxLjUtNDggNDgtNDhzNDggMjEuNSA0OCA0OHY4MGg5NmMyNi41IDAgNDgtMjEuNSA0OC00OFY0OGMwLTI2LjUtMjEuNS00OC00OC00OEg0OHpNNjQgMjQwYzAtOC44IDcuMi0xNiAxNi0xNmgzMmM4LjggMCAxNiA3LjIgMTYgMTZ2MzJjMCA4LjgtNy4yIDE2LTE2IDE2SDgwYy04LjggMC0xNi03LjItMTYtMTZWMjQwem0xMTItMTZoMzJjOC44IDAgMTYgNy4yIDE2IDE2djMyYzAgOC44LTcuMiAxNi0xNiAxNkgxNzZjLTguOCAwLTE2LTcuMi0xNi0xNlYyNDBjMC04LjggNy4yLTE2IDE2LTE2em04MCAxNmMwLTguOCA3LjItMTYgMTYtMTZoMzJjOC44IDAgMTYgNy4yIDE2IDE2djMyYzAgOC44LTcuMiAxNi0xNiAxNkgyNzJjLTguOCAwLTE2LTcuMi0xNi0xNlYyNDB6TTgwIDk2aDMyYzguOCAwIDE2IDcuMiAxNiAxNnYzMmMwIDguOC03LjIgMTYtMTYgMTZIODBjLTguOCAwLTE2LTcuMi0xNi0xNlYxMTJjMC04LjggNy4yLTE2IDE2LTE2em04MCAxNmMwLTguOCA3LjItMTYgMTYtMTZoMzJjOC44IDAgMTYgNy4yIDE2IDE2djMyYzAgOC44LTcuMiAxNi0xNiAxNkgxNzZjLTguOCAwLTE2LTcuMi0xNi0xNlYxMTJ6TTI3MiA5NmgzMmM4LjggMCAxNiA3LjIgMTYgMTZ2MzJjMCA4LjgtNy4yIDE2LTE2IDE2SDI3MmMtOC44IDAtMTYtNy4yLTE2LTE2VjExMmMwLTguOCA3LjItMTYgMTYtMTZ6Ii8+PC9zdmc+;connectable=0;movable=1;verticalLabelPosition=bottom;resizable=1;rotatable=0;cloneable=0;deletable=1;recursiveResize=0;imageBackground=none;verticalAlign=top;hachureGap=4;fontFamily=Helvetica;fontSize=12;" parent="RpSKrlZ48StNRSg9d6U9-31" vertex="1">
                    <mxGeometry x="130" y="40" width="25" height="25" as="geometry"/>
                </mxCell>
                <mxCell id="RpSKrlZ48StNRSg9d6U9-37" style="edgeStyle=orthogonalEdgeStyle;rounded=0;orthogonalLoop=1;jettySize=auto;html=1;entryX=0.564;entryY=-0.004;entryDx=0;entryDy=0;dashed=1;entryPerimeter=0;" parent="1" target="RpSKrlZ48StNRSg9d6U9-26" edge="1">
                    <mxGeometry relative="1" as="geometry">
                        <mxPoint x="401.99711864406754" y="600" as="sourcePoint"/>
                        <mxPoint x="401.99711864406754" y="730" as="targetPoint"/>
                    </mxGeometry>
                </mxCell>
                <mxCell id="RpSKrlZ48StNRSg9d6U9-40" value="use" style="edgeStyle=orthogonalEdgeStyle;rounded=0;orthogonalLoop=1;jettySize=auto;html=1;entryX=0.375;entryY=-0.038;entryDx=0;entryDy=0;entryPerimeter=0;dashed=1;fontSize=12;" parent="1" target="RpSKrlZ48StNRSg9d6U9-32" edge="1">
                    <mxGeometry relative="1" as="geometry">
                        <mxPoint x="595.8857142857146" y="600" as="sourcePoint"/>
                        <mxPoint x="596.5549152542371" y="729.5999999999999" as="targetPoint"/>
                    </mxGeometry>
                </mxCell>
                <mxCell id="RpSKrlZ48StNRSg9d6U9-43" value="&lt;h1&gt;dARK Overview&lt;/h1&gt;" style="text;html=1;strokeColor=none;fillColor=none;spacing=5;spacingTop=-20;whiteSpace=wrap;overflow=hidden;rounded=0;" parent="1" vertex="1">
                    <mxGeometry x="75" y="20" width="225" height="50" as="geometry"/>
                </mxCell>
            </root>
        </mxGraphModel>
    </diagram>
</mxfile>